<svg xmlns="http://www.w3.org/2000/svg" version="1.1" xmlns:xlink="http://www.w3.org/1999/xlink" xmlns:svgjs="http://svgjs.dev/svgjs" width="1000" height="1000" viewBox="0 0 1000 1000"><rect width="1000" height="1000" fill="#ffffff"></rect><g transform="matrix(0.7,0,0,0.7,149.57575975165696,418.0295045294921)"><svg viewBox="0 0 396 93" data-background-color="#ffffff" preserveAspectRatio="xMidYMid meet" height="234" width="1000" xmlns="http://www.w3.org/2000/svg" xmlns:xlink="http://www.w3.org/1999/xlink"><g id="tight-bounds" transform="matrix(1,0,0,1,0.23999876906265172,0.040024900837835276)"><svg viewBox="0 0 395.52 92.91995019832433" height="92.91995019832433" width="395.52"><g><svg viewBox="0 0 536.2100533553463 125.97241973508194" height="92.91995019832433" width="395.52"><g><rect width="5.17289280410943" height="125.97241973508194" x="121.97555635199758" y="0" fill="#000000" opacity="1" stroke-width="0" stroke="transparent" fill-opacity="1" class="rect-o-0" data-fill-palette-color="primary" rx="1%" id="o-0" data-palette-color="#1ebbd7"></rect></g><g transform="matrix(1,0,0,1,140.69005335534635,0.3133642281967113)"><svg viewBox="0 0 395.52 125.34569127868852" height="125.34569127868852" width="395.52"><g id="textblocktransform"><svg viewBox="0 0 395.52 125.34569127868852" height="125.34569127868852" width="395.52" id="textblock"><g><svg viewBox="0 0 395.52 125.34569127868852" height="125.34569127868852" width="395.52"><g transform="matrix(1,0,0,1,0,0)"><svg width="395.52" viewBox="0.2199993133544922 -32.400001525878906 226.02999877929688 67.80000305175781" height="125.34569127868852" data-palette-color="#1ebbd7"><svg></svg><svg></svg><g class="wordmark-text-0" data-fill-palette-color="primary" id="text-0"><path xmlns="http://www.w3.org/2000/svg" d="M25.49 0l-1.37-3.54h-10.59l2.24-6.42h5.86l-8.67-22.44h10.53l12.91 32.4zM16.58-18.07l-5.94 18.07h-10.42l11.57-30.93zM38.99 0v-6.91h3.25v-18.6h-3.25v-6.89h17.28v6.89h-3.24v18.6h3.24v6.91z" fill="#000000" fill-rule="nonzero" stroke="none" stroke-width="1" stroke-linecap="butt" stroke-linejoin="miter" stroke-miterlimit="10" stroke-dasharray="" stroke-dashoffset="0" font-family="none" font-weight="none" font-size="none" text-anchor="none" style="mix-blend-mode: normal" data-fill-palette-color="primary" opacity="1"></path><path xmlns="http://www.w3.org/2000/svg" d="M2.86 35.4v-32.4h10.79v14.48h9.96v6.37h-9.96v11.55zM21.02 9.47h-5.66v-6.47h16.45v10.74h-10.79zM34.81 35.4v-6.91h3.25v-18.6h-3.25v-6.89h17.29v6.89h-3.25v18.6h3.25v6.91zM64.18 35.4v-23.66h11.24v23.66zM55.74 10.06v-7.06h28.12v7.06zM99.39 3l19.7 32.4h-11.47l-19.63-32.4zM97.39 35.4h-9.4v-29.32l9.4 15.4zM109.69 3h9.4v29.32l-9.4-15.47zM145.92 22.09h-10.32v13.31h-10.8v-32.4h10.8v12.84h10.32zM144.02 9.28h-6.72v-6.28h16.87v9.38h-10.15zM154.17 35.4h-16.87v-6.47h6.08v-3.25h10.79zM183.72 35.4h-4.35v-12.13h-14.01l-6.5-6.5v-7.3l6.5-6.47h3.66v11.5h14.89l6.28 6.5v7.93zM179.37 8.84h-8.64v-5.84h12.96l5.62 5.64v3.44h-9.94zM158.86 28.93v-3.25h10.79v3.86h8.01v5.86h-13.35zM219.78 35.4h-4.35v-12.13h-14.01l-6.5-6.5v-7.3l6.5-6.47h3.66v11.5h14.89l6.28 6.5v7.93zM215.43 8.84h-8.64v-5.84h12.96l5.62 5.64v3.44h-9.94zM194.92 28.93v-3.25h10.79v3.86h8.01v5.86h-13.35z" fill="#000000" fill-rule="nonzero" stroke="none" stroke-width="1" stroke-linecap="butt" stroke-linejoin="miter" stroke-miterlimit="10" stroke-dasharray="" stroke-dashoffset="0" font-family="none" font-weight="none" font-size="none" text-anchor="none" style="mix-blend-mode: normal" data-fill-palette-color="primary" opacity="1"></path></g></svg></g></svg></g></svg></g></svg></g><g transform="matrix(1,0,0,1,0,0.3133642281967113)"><svg viewBox="0 0 108.43395215275824 125.34569127868852" height="125.34569127868852" width="108.43395215275824"><g><svg xmlns="http://www.w3.org/2000/svg" xmlns:xlink="http://www.w3.org/1999/xlink" version="1.1" x="0" y="0" viewBox="17.299999237060547 12.199999809265137 65.39999389648438 75.60000610351562" style="enable-background:new 0 0 100 100;" xml:space="preserve" height="125.34569127868852" width="108.43395215275824" class="icon-icon-0" data-fill-palette-color="accent" id="icon-0"><path d="M50 12.2L17.3 31.1v37.8L50 87.8l32.7-18.9V31.1L50 12.2zM32.1 37.4L50 16l17 21.4H32.1zM67.3 39.4L50 70.4l-18.2-31H67.3zM48.1 71l-27.7-4.5 9.8-25.9L48.1 71zM68.9 40.7l10.7 25.9-27.7 4.5L68.9 40.7zM69.2 37.1L52.6 16l27 15.6L69.2 37.1zM29.8 37.1l-9.4-5.5 26.8-15.5L29.8 37.1zM28.8 38.8l-9.5 25V33.3L28.8 38.8zM49 73.2v11.7L20.9 68.7 49 73.2zM51 73.2l28.1-4.5L51 84.9V73.2zM70.3 38.8l10.5-5.6v30.9L70.3 38.8z" fill="#000000" data-fill-palette-color="accent"></path></svg></g></svg></g></svg></g><defs></defs></svg><rect width="395.52" height="92.91995019832433" fill="none" stroke="none" visibility="hidden"></rect></g></svg></g></svg>