<?xml version="1.0" encoding="UTF-8"?>
<!DOCTYPE svg PUBLIC "-//W3C//DTD SVG 1.1//EN" "http://www.w3.org/Graphics/SVG/1.1/DTD/svg11.dtd">
<!-- Creator: CorelDRAW 2018 -->
<svg xmlns="http://www.w3.org/2000/svg" xml:space="preserve" width="210mm" height="297mm" version="1.1" style="shape-rendering:geometricPrecision; text-rendering:geometricPrecision; image-rendering:optimizeQuality; fill-rule:evenodd; clip-rule:evenodd"
viewBox="0 0 21000 29700"
 xmlns:xlink="http://www.w3.org/1999/xlink"
 xmlns:svgjs="http://svgjs.dev/svgjs"
 data-background-color="#ffffff">
 <defs>
  <style type="text/css">
   <![CDATA[
    .fil1 {fill:none}
    .fil0 {fill:black}
   ]]>
  </style>
 </defs>
 <g id="图层_x0020_1">
  <metadata id="CorelCorpID_0Corel-Layer"/>
  <path class="fil0" d="M10729.12 10934.72l-2560.33 1479.84 0 2959.65 2560.33 1479.81 2560.32 -1479.81 0 -2959.65 -2560.32 -1479.84zm-1401.53 1973.1l1401.53 -1675.57 1331.04 1675.57 -2732.57 0zm2756.06 156.6l-1354.53 2427.23 -1425.01 -2427.23 2779.54 0zm-1503.3 2474.2l-2168.83 -352.33 767.3 -2027.91 1401.53 2380.24zm1628.58 -2372.4l837.79 2027.9 -2168.84 352.34 1331.05 -2380.24zm23.48 -281.89l-1299.73 -1652.08 2114.04 1221.44 -814.31 430.64zm-3084.91 0l-735.98 -430.64 2098.38 -1213.61 -1362.4 1644.25zm-78.31 133.12l-743.82 1957.43 0 -2388.08 743.82 430.65zm1581.61 2693.42l0 916.07 -2200.15 -1268.4 2200.15 352.33zm156.6 0l2200.16 -352.33 -2200.16 1268.43 0 -916.1zm1511.14 -2693.42l822.11 -438.46 0 2419.4 -822.11 -1980.94z" data-fill-palette-color="accent"/>
  <rect class="fil1" x="-22421.86" y="15410.54" width="18431.55" height="4330.14"/>
 </g>
</svg>
